<svg width="24" height="24" viewBox="0 0 24 24" fill="none" xmlns="http://www.w3.org/2000/svg">
<path d="M13.4702 8.52997C13.3965 8.46131 13.3374 8.37851 13.2964 8.28651C13.2554 8.19451 13.2334 8.0952 13.2316 7.99449C13.2298 7.89379 13.2483 7.79376 13.286 7.70037C13.3238 7.60698 13.3799 7.52215 13.4511 7.45093C13.5224 7.37971 13.6072 7.32357 13.7006 7.28585C13.794 7.24813 13.894 7.2296 13.9947 7.23138C14.0954 7.23316 14.1947 7.2552 14.2867 7.29619C14.3787 7.33718 14.4615 7.39628 14.5302 7.46997L18.5302 11.47C18.6706 11.6106 18.7495 11.8012 18.7495 12C18.7495 12.1987 18.6706 12.3893 18.5302 12.53L14.5302 16.53C14.4615 16.6037 14.3787 16.6628 14.2867 16.7038C14.1947 16.7447 14.0954 16.7668 13.9947 16.7686C13.894 16.7703 13.794 16.7518 13.7006 16.7141C13.6072 16.6764 13.5224 16.6202 13.4511 16.549C13.3799 16.4778 13.3238 16.393 13.286 16.2996C13.2483 16.2062 13.2298 16.1062 13.2316 16.0054C13.2334 15.9047 13.2554 15.8054 13.2964 15.7134C13.3374 15.6214 13.3965 15.5386 13.4702 15.47L16.1902 12.75H6.50017C6.30126 12.75 6.11049 12.671 5.96984 12.5303C5.82919 12.3896 5.75017 12.1989 5.75017 12C5.75017 11.8011 5.82919 11.6103 5.96984 11.4696C6.11049 11.329 6.30126 11.25 6.50017 11.25H16.1902L13.4702 8.52997Z" fill="#F0F0F0"/>
</svg>
