<svg width="56" height="56" viewBox="0 0 56 56" fill="none" xmlns="http://www.w3.org/2000/svg">
<path d="M28 0C12.537 0 0 12.537 0 28C0 43.463 12.537 56 28 56C43.463 56 56 43.463 56 28C56 12.537 43.463 0 28 0ZM28 1.82C42.4573 1.82 54.1777 13.5403 54.1777 28C54.1777 42.4573 42.4597 54.1777 28 54.1777C13.5403 54.1777 1.82233 42.4573 1.82233 28C1.82233 13.5427 13.5427 1.82 28 1.82ZM26.418 3.29C25.648 3.32267 24.878 3.388 24.1033 3.472L23.8537 10.3413C24.4031 10.2484 24.9557 10.1752 25.5103 10.122L25.6737 5.48333L25.6433 5.16367L25.7437 5.467L27.293 8.94133H28.707L30.2563 5.46933L30.3497 5.16367L30.3263 5.48333L30.4897 10.122C31.031 10.1733 31.5933 10.248 32.1463 10.3413L31.892 3.472C31.1227 3.38531 30.3507 3.32461 29.5773 3.29L28.0537 7.08167L28 7.36167L27.9463 7.08167L26.418 3.29ZM42.042 7.546L38.4417 13.2113C38.8967 13.5613 39.4963 14.077 39.8813 14.4293L43.2717 12.67L43.4863 12.509L43.3253 12.7283L41.5707 16.1187C41.951 16.527 42.4993 17.1873 42.8073 17.5887L48.4773 13.986C48.1296 13.5362 47.7717 13.0943 47.404 12.6607L43.813 15.0267L43.568 15.2413L43.75 14.973L45.3367 11.809L44.2167 10.689L41.0527 12.2757L40.7843 12.4577L40.9967 12.2103L43.372 8.61933C42.952 8.26467 42.553 7.94033 42.042 7.546ZM12.8333 8.83167C11.9933 8.918 11.3447 9.492 9.583 11.4567C8.97212 12.149 8.38306 12.8602 7.81667 13.5893L12.656 18.179C14.259 16.4057 14.91 15.7477 16.1747 14.4153C17.0683 13.4703 17.5747 12.3853 16.6787 11.3423C16.1933 10.7777 15.3767 10.654 14.6953 10.934L14.63 10.9573L14.6533 10.8967C14.7375 10.5871 14.7286 10.2595 14.6277 9.95495C14.5269 9.65037 14.3386 9.38223 14.0863 9.184C13.911 9.04574 13.7099 8.94362 13.4949 8.88354C13.2798 8.82347 13.055 8.8043 12.8333 8.83167ZM12.8473 10.2667C13.1647 10.1803 13.4937 10.4067 13.566 10.7333C13.6407 11.06 13.4353 11.368 13.2067 11.6247C12.6933 12.208 10.801 14.1867 10.801 14.1867L9.863 13.293C10.836 12.103 11.872 11.0203 12.341 10.591C12.4817 10.4443 12.6553 10.3332 12.8473 10.2667ZM28 11.3937C23.8896 11.3919 19.9247 12.9152 16.8729 15.6687C13.8211 18.4222 11.8995 22.2101 11.48 26.299V26.3037C11.2163 28.8979 11.5668 31.5177 12.5032 33.9513C13.4395 36.385 14.9354 38.5641 16.8699 40.3126C18.8044 42.061 21.1232 43.3297 23.6388 44.016C26.1544 44.7024 28.7962 44.7871 31.3507 44.2633C35.0949 43.4937 38.4586 41.455 40.8734 38.4918C43.2882 35.5285 44.606 31.8225 44.604 28C44.5997 23.5979 42.8489 19.3773 39.7359 16.2648C36.6229 13.1523 32.4021 11.402 28 11.3983V11.3937ZM15.0803 11.9583C15.19 11.9583 15.3043 11.9887 15.407 12.0587C15.6123 12.1963 15.7057 12.432 15.6543 12.6653C15.5937 12.943 15.3627 13.2043 15.176 13.4073L12.7377 16.0207L11.7577 15.0873C11.7577 15.0873 13.594 13.146 14.196 12.523C14.434 12.2757 14.588 12.1263 14.7513 12.0447C14.8525 11.9921 14.9664 11.9626 15.0803 11.9583ZM28 13.5753C29.8949 13.5732 31.7716 13.9448 33.5226 14.669C35.2737 15.3931 36.8647 16.4555 38.2046 17.7954C39.5445 19.1353 40.6069 20.7263 41.331 22.4774C42.0552 24.2284 42.4268 26.1051 42.4247 28H28V42.4247C26.1051 42.4268 24.2284 42.0552 22.4774 41.331C20.7263 40.6069 19.1353 39.5445 17.7954 38.2046C16.4555 36.8647 15.3931 35.2737 14.669 33.5226C13.9448 31.7716 13.5732 29.8949 13.5753 28H28V13.5753Z" fill="white"/>
</svg>
