<svg width="81" height="80" viewBox="0 0 81 80" fill="none" xmlns="http://www.w3.org/2000/svg">
<g clip-path="url(#clip0_152_116)">
<g filter="url(#filter0_d_152_116)">
<path d="M77.7282 43.1594C77.1657 36.8453 76.2391 35.6156 75.8891 35.1531C75.0844 34.0844 73.7969 33.3859 72.4344 32.6531C72.3574 32.6124 72.2908 32.5543 72.2401 32.4834C72.1893 32.4126 72.1557 32.3309 72.1419 32.2448C72.1282 32.1588 72.1346 32.0707 72.1606 31.9875C72.1867 31.9044 72.2318 31.8284 72.2922 31.7656C72.5446 31.5097 72.7385 31.2022 72.8607 30.8643C72.9828 30.5263 73.0304 30.1659 73 29.8078C72.9413 29.1728 72.646 28.5831 72.1728 28.1556C71.6996 27.7282 71.083 27.4942 70.4454 27.5H68.0079C67.9034 27.5006 67.799 27.5074 67.6954 27.5203C67.6242 27.4894 67.5505 27.4649 67.4751 27.4469C66.0313 24.3953 64.0547 20.2172 59.9579 18.1781C53.8813 15.1562 42.6875 15 40.5 15C38.3125 15 27.1188 15.1562 21.05 18.1734C16.9532 20.2125 14.9766 24.3906 13.5329 27.4422L13.5204 27.4672C13.4484 27.4773 13.3776 27.4951 13.3094 27.5203C13.2057 27.5074 13.1014 27.5006 12.9969 27.5H10.5547C9.91706 27.4942 9.30048 27.7282 8.82728 28.1556C8.35408 28.5831 8.05881 29.1728 8.00005 29.8078C7.97229 30.1651 8.022 30.5241 8.14578 30.8604C8.26956 31.1967 8.46448 31.5022 8.71723 31.7563C8.7777 31.819 8.82275 31.895 8.84884 31.9782C8.87492 32.0613 8.88132 32.1494 8.86753 32.2355C8.85374 32.3215 8.82014 32.4032 8.76938 32.4741C8.71863 32.5449 8.6521 32.603 8.57505 32.6437C7.21255 33.3813 5.9188 34.0797 5.12036 35.1437C4.77036 35.6125 3.84536 36.8359 3.2813 43.15C2.9688 46.7031 2.92192 50.3813 3.16723 52.75C3.6813 57.6719 4.64536 60.6469 4.68598 60.7703C4.83392 61.2195 5.10623 61.6175 5.47131 61.9182C5.83639 62.2188 6.27925 62.4097 6.74848 62.4688V62.5C6.74848 63.163 7.01188 63.7989 7.48072 64.2678C7.94956 64.7366 8.58544 65 9.24848 65H17.9985C18.6615 65 19.2974 64.7366 19.7663 64.2678C20.2351 63.7989 20.4985 63.163 20.4985 62.5C21.8438 62.5 22.7797 62.2594 23.7719 62.0031C25.2044 61.6171 26.6686 61.3604 28.1469 61.2359C32.9141 60.7812 37.6547 60.625 40.5 60.625C43.2875 60.625 48.2375 60.7812 53.0125 61.2359C54.4967 61.3607 55.9667 61.6185 57.4047 62.0062C58.3547 62.25 59.2563 62.475 60.5047 62.4984C60.5047 63.1615 60.7681 63.7974 61.237 64.2662C61.7058 64.735 62.3417 64.9984 63.0047 64.9984H71.7547C72.4178 64.9984 73.0537 64.735 73.5225 64.2662C73.9913 63.7974 74.2547 63.1615 74.2547 62.4984V62.4797C74.7251 62.4218 75.1693 62.2314 75.5356 61.9307C75.9018 61.6299 76.1751 61.2313 76.3235 60.7812C76.3641 60.6578 77.3282 57.6828 77.8422 52.7609C78.0875 50.3906 78.0438 46.7188 77.7282 43.1594ZM18.0516 29.5797C19.3016 26.9234 20.7313 23.9172 23.2766 22.65C26.9547 20.8188 34.5782 19.9937 40.5 19.9937C46.4219 19.9937 54.0454 20.8125 57.7235 22.65C60.2688 23.9172 61.6922 26.925 62.9485 29.5797L63.1047 29.9187C63.1961 30.1118 63.2365 30.325 63.2221 30.5381C63.2076 30.7511 63.1388 30.9569 63.0223 31.1359C62.9057 31.3148 62.7452 31.4609 62.5561 31.5602C62.3671 31.6595 62.1557 31.7087 61.9422 31.7031C56.75 31.5625 45.8125 31.1125 40.5 31.1125C35.1875 31.1125 24.25 31.5734 19.05 31.7141C18.8366 31.7196 18.6252 31.6704 18.4361 31.5711C18.2471 31.4718 18.0866 31.3258 17.97 31.1468C17.8534 30.9679 17.7847 30.7621 17.7702 30.549C17.7558 30.3359 17.7962 30.1227 17.8875 29.9297C17.9422 29.8141 18 29.6969 18.0516 29.5797ZM19.9157 42.0219C17.2279 42.3454 14.5229 42.505 11.8157 42.5C10.1594 42.5 8.45161 42.0312 8.13442 40.5562C7.91723 39.5641 7.94067 39.0063 8.05786 38.4453C8.1563 37.9688 8.31255 37.6219 9.0938 37.5C11.125 37.1875 12.261 37.5797 15.586 38.5594C17.7907 39.2078 19.3813 40.0719 20.2875 40.7562C20.7422 41.0938 20.5 41.975 19.9157 42.0219ZM54.5063 54.8344C52.4501 55.0687 48.3375 54.9828 40.5469 54.9828C32.7563 54.9828 28.6454 55.0687 26.5891 54.8344C24.4672 54.5984 21.7625 52.5922 23.6094 50.8047C24.8391 49.6266 27.7079 48.7453 31.5282 48.25C35.3485 47.7547 36.9657 47.5 40.5313 47.5C44.0969 47.5 45.55 47.6562 49.5344 48.2516C53.5188 48.8469 56.5297 49.7391 57.4532 50.8063C59.1375 52.7188 56.6266 54.5859 54.5063 54.8438V54.8344ZM72.8657 40.5547C72.5532 42.0359 70.8344 42.4984 69.1844 42.4984C66.4254 42.4991 63.6687 42.3394 60.9282 42.0203C60.45 41.975 60.2282 41.1359 60.7125 40.7547C61.6047 40.0531 63.2125 39.2063 65.4141 38.5578C68.7391 37.5781 70.6563 37.1859 72.3032 37.5125C72.7047 37.5922 72.9172 38.0234 72.9422 38.2938C73.0524 39.0464 73.0265 39.8128 72.8657 40.5562V40.5547Z" fill="#2AFF99"/>
</g>
</g>
<defs>
<filter id="filter0_d_152_116" x="-23.9893" y="-12" width="128.989" height="104" filterUnits="userSpaceOnUse" color-interpolation-filters="sRGB">
<feFlood flood-opacity="0" result="BackgroundImageFix"/>
<feColorMatrix in="SourceAlpha" type="matrix" values="0 0 0 0 0 0 0 0 0 0 0 0 0 0 0 0 0 0 127 0" result="hardAlpha"/>
<feOffset/>
<feGaussianBlur stdDeviation="13.5"/>
<feComposite in2="hardAlpha" operator="out"/>
<feColorMatrix type="matrix" values="0 0 0 0 0.164706 0 0 0 0 1 0 0 0 0 0.6 0 0 0 0.2 0"/>
<feBlend mode="normal" in2="BackgroundImageFix" result="effect1_dropShadow_152_116"/>
<feBlend mode="normal" in="SourceGraphic" in2="effect1_dropShadow_152_116" result="shape"/>
</filter>
<clipPath id="clip0_152_116">
<rect width="80" height="80" fill="white" transform="translate(0.5)"/>
</clipPath>
</defs>
</svg>
