<svg width="65" height="64" viewBox="0 0 65 64" fill="none" xmlns="http://www.w3.org/2000/svg">
<g clip-path="url(#clip0_152_200)">
<g filter="url(#filter0_d_152_200)">
<path d="M32.5 6C27.3577 6 22.3309 7.52487 18.0552 10.3818C13.7795 13.2387 10.447 17.2994 8.47914 22.0502C6.51127 26.8011 5.99638 32.0288 6.99959 37.0723C8.00281 42.1159 10.4791 46.7486 14.1152 50.3848C17.7514 54.0209 22.3842 56.4972 27.4277 57.5004C32.4712 58.5036 37.6989 57.9887 42.4498 56.0209C47.2007 54.053 51.2613 50.7205 54.1182 46.4448C56.9751 42.1691 58.5 37.1423 58.5 32C58.4927 25.1066 55.7511 18.4976 50.8767 13.6233C46.0024 8.74889 39.3934 6.00728 32.5 6ZM46.5 34H32.5C31.9696 34 31.4609 33.7893 31.0858 33.4142C30.7107 33.0391 30.5 32.5304 30.5 32V18C30.5 17.4696 30.7107 16.9609 31.0858 16.5858C31.4609 16.2107 31.9696 16 32.5 16C33.0304 16 33.5392 16.2107 33.9142 16.5858C34.2893 16.9609 34.5 17.4696 34.5 18V30H46.5C47.0304 30 47.5392 30.2107 47.9142 30.5858C48.2893 30.9609 48.5 31.4696 48.5 32C48.5 32.5304 48.2893 33.0391 47.9142 33.4142C47.5392 33.7893 47.0304 34 46.5 34Z" fill="#2AFF99"/>
</g>
</g>
<defs>
<filter id="filter0_d_152_200" x="-13.5" y="-14" width="92" height="92" filterUnits="userSpaceOnUse" color-interpolation-filters="sRGB">
<feFlood flood-opacity="0" result="BackgroundImageFix"/>
<feColorMatrix in="SourceAlpha" type="matrix" values="0 0 0 0 0 0 0 0 0 0 0 0 0 0 0 0 0 0 127 0" result="hardAlpha"/>
<feOffset/>
<feGaussianBlur stdDeviation="10"/>
<feComposite in2="hardAlpha" operator="out"/>
<feColorMatrix type="matrix" values="0 0 0 0 0.164706 0 0 0 0 1 0 0 0 0 0.6 0 0 0 0.1 0"/>
<feBlend mode="normal" in2="BackgroundImageFix" result="effect1_dropShadow_152_200"/>
<feBlend mode="normal" in="SourceGraphic" in2="effect1_dropShadow_152_200" result="shape"/>
</filter>
<clipPath id="clip0_152_200">
<rect width="64" height="64" fill="white" transform="translate(0.5)"/>
</clipPath>
</defs>
</svg>
