<svg width="81" height="80" viewBox="0 0 81 80" fill="none" xmlns="http://www.w3.org/2000/svg">
<g clip-path="url(#clip0_152_146)">
<g filter="url(#filter0_d_152_146)">
<path d="M32.5333 53.7001C32.5333 46.7668 35.8 40.6334 40.8333 36.6667H17.1667L22.1667 21.6667H58.8333L62.9 33.8667C65.7 35.1001 68.1667 36.9001 70.2 39.1334L63.5667 20.0001C62.9 18.0667 61.0333 16.6667 58.8333 16.6667H22.1667C19.9667 16.6667 18.1 18.0667 17.4333 20.0001L10.5 40.0001V66.6667C10.5 68.5001 12 70.0001 13.8333 70.0001H17.1667C19 70.0001 20.5 68.5001 20.5 66.6667V63.3334H34.8C33.3667 60.4334 32.5333 57.1667 32.5333 53.7001ZM22.1667 53.3334C19.4 53.3334 17.1667 51.1001 17.1667 48.3334C17.1667 45.5667 19.4 43.3334 22.1667 43.3334C24.9333 43.3334 27.1667 45.5667 27.1667 48.3334C27.1667 51.1001 24.9333 53.3334 22.1667 53.3334ZM54.2 38.7001C62.5333 38.7001 69.2 45.3667 69.2 53.7001C69.2 56.6667 68.3667 59.4001 66.9 61.6667L77.1667 72.0334L72.5333 76.6667L62.1667 66.4334C59.8333 67.8667 57.1667 68.7001 54.2 68.7001C45.8667 68.7001 39.2 62.0334 39.2 53.7001C39.2 45.3667 45.8667 38.7001 54.2 38.7001ZM54.2 45.3667C52.5518 45.3667 50.9407 45.8555 49.5702 46.7712C48.1998 47.6868 47.1317 48.9883 46.501 50.5111C45.8703 52.0338 45.7052 53.7093 46.0268 55.3258C46.3483 56.9423 47.142 58.4272 48.3074 59.5926C49.4729 60.7581 50.9577 61.5518 52.5742 61.8733C54.1908 62.1948 55.8663 62.0298 57.389 61.3991C58.9117 60.7683 60.2132 59.7002 61.1289 58.3298C62.0446 56.9594 62.5333 55.3483 62.5333 53.7001C62.5333 49.0667 58.8333 45.3667 54.2 45.3667Z" fill="#2AFF99"/>
</g>
</g>
<defs>
<filter id="filter0_d_152_146" x="-16.5" y="-10.3333" width="120.667" height="114" filterUnits="userSpaceOnUse" color-interpolation-filters="sRGB">
<feFlood flood-opacity="0" result="BackgroundImageFix"/>
<feColorMatrix in="SourceAlpha" type="matrix" values="0 0 0 0 0 0 0 0 0 0 0 0 0 0 0 0 0 0 127 0" result="hardAlpha"/>
<feOffset/>
<feGaussianBlur stdDeviation="13.5"/>
<feComposite in2="hardAlpha" operator="out"/>
<feColorMatrix type="matrix" values="0 0 0 0 0.164706 0 0 0 0 1 0 0 0 0 0.6 0 0 0 0.2 0"/>
<feBlend mode="normal" in2="BackgroundImageFix" result="effect1_dropShadow_152_146"/>
<feBlend mode="normal" in="SourceGraphic" in2="effect1_dropShadow_152_146" result="shape"/>
</filter>
<clipPath id="clip0_152_146">
<rect width="80" height="80" fill="white" transform="translate(0.5)"/>
</clipPath>
</defs>
</svg>
