<svg width="56" height="46" viewBox="0 0 56 46" fill="none" xmlns="http://www.w3.org/2000/svg">
<path d="M55.7712 11.03C55.0012 3.52135 50.0079 1.94168 45.6119 1.22068C43.4046 0.847346 39.4752 0.520679 36.9412 0.427346C34.7339 0.287346 29.5492 0.217346 27.9929 0.217346C26.4599 0.217346 21.2496 0.287346 19.0446 0.427346C16.5339 0.520679 12.5812 0.847346 10.3739 1.22068C5.98023 1.96501 0.979901 3.54001 0.214568 11.03C0.0279009 13.0763 -0.0187658 15.7503 0.00456754 18.6087C0.0745675 23.3477 0.471234 26.556 0.704567 28.789C0.867901 30.322 1.49323 34.9024 2.30757 37.273C3.4229 40.528 4.4449 41.48 5.63023 42.4577C7.81657 44.224 11.3959 44.7817 12.1402 44.9217C16.1839 45.645 24.3669 45.7803 27.9696 45.7803C31.5722 45.7803 39.7529 45.6637 43.7989 44.9217C44.5666 44.7817 48.1459 44.245 50.3089 42.4577C51.4942 41.48 52.5162 40.528 53.6316 37.273C54.4482 34.9024 55.0969 30.322 55.2602 28.789C55.4936 26.556 55.9112 23.3477 55.9579 18.6087C56.0512 15.7503 55.9812 13.0763 55.7712 11.03ZM53.0272 23.63C52.5839 29.6267 52.0519 33.206 51.2842 35.81C50.6076 38.0873 49.7979 39.597 48.5659 40.6913C46.5429 42.5277 43.7522 42.922 42.1259 43.1553C38.5932 43.692 32.6642 43.8553 27.9929 43.8553C23.3216 43.8553 17.3926 43.6687 13.8599 43.1553C12.2336 42.922 9.4429 42.5277 7.4199 40.6913C6.21123 39.597 5.3759 38.064 4.7249 35.8077C3.95723 33.2293 3.4229 29.6243 2.9819 23.6277C2.72523 20.0273 2.7719 14.1683 3.16857 11.0277C3.77057 6.33535 6.0969 3.98568 11.0716 3.10368C13.3956 2.68368 16.5316 2.38035 19.4856 2.24035C21.8562 2.07701 25.7856 2.00701 27.9696 2.03035C30.1536 2.00701 34.0829 2.10035 36.4536 2.24035C39.4286 2.38035 42.5436 2.68368 44.8676 3.10368C49.8656 3.98568 52.1919 6.35868 52.7729 11.03C53.2372 14.1683 53.3049 20.0273 53.0272 23.63ZM40.8916 4.05335C39.6129 9.79801 39.1019 12.4253 38.0542 16.5833C37.0556 20.585 36.2646 24.2787 34.9392 26.0683C33.5696 27.8813 31.7542 28.278 30.5222 28.4157C29.8712 28.4857 29.4069 28.509 28.0349 28.5323C27.1971 28.5482 26.3592 28.5093 25.5266 28.4157C24.2946 28.2757 22.4582 27.8813 21.1119 26.0683C19.7632 24.2787 18.9956 20.585 17.9969 16.5857C16.9002 12.4487 16.4149 9.79568 15.1129 4.05568C15.1129 4.05568 13.8342 4.10235 13.2532 4.14901C12.4856 4.19568 11.8812 4.26568 11.2302 4.35901C12.0306 16.8937 12.8449 30.21 13.8576 41.9957C15.7079 42.2284 17.5696 42.36 19.4342 42.39C20.2042 39.436 21.1796 35.3433 22.2506 33.6003C23.1326 32.1817 24.5046 32.0207 25.2722 31.9273C26.4809 31.764 27.5029 31.7407 27.9906 31.7407C28.4572 31.7173 29.4769 31.7407 30.7089 31.9273C31.4789 32.044 32.8486 32.184 33.7306 33.6003C34.8272 35.3433 35.7769 39.4337 36.5446 42.3877C36.5446 42.3877 37.3799 42.3643 39.2629 42.271C40.2196 42.229 41.1762 42.1357 42.1236 41.991C43.1922 29.4143 43.9552 16.959 44.7509 4.35901C44.0976 4.26568 43.4956 4.19568 42.7279 4.14901C42.1912 4.10235 40.8916 4.05335 40.8916 4.05335Z" fill="white"/>
</svg>
