<svg width="81" height="80" viewBox="0 0 81 80" fill="none" xmlns="http://www.w3.org/2000/svg">
<g clip-path="url(#clip0_152_126)">
<g filter="url(#filter0_d_152_126)">
<path d="M40.5002 6.66669C26.5002 6.66669 13.8335 17.4 13.8335 34C13.8335 44.6 22.0002 57.0667 38.3002 71.4334C39.5668 72.5334 41.4668 72.5334 42.7335 71.4334C59.0002 57.0667 67.1668 44.6 67.1668 34C67.1668 17.4 54.5002 6.66669 40.5002 6.66669ZM40.5002 40C36.8335 40 33.8335 37 33.8335 33.3334C33.8335 29.6667 36.8335 26.6667 40.5002 26.6667C44.1668 26.6667 47.1668 29.6667 47.1668 33.3334C47.1668 37 44.1668 40 40.5002 40Z" fill="#2AFF99"/>
</g>
</g>
<defs>
<filter id="filter0_d_152_126" x="-13.1665" y="-20.3333" width="107.333" height="119.592" filterUnits="userSpaceOnUse" color-interpolation-filters="sRGB">
<feFlood flood-opacity="0" result="BackgroundImageFix"/>
<feColorMatrix in="SourceAlpha" type="matrix" values="0 0 0 0 0 0 0 0 0 0 0 0 0 0 0 0 0 0 127 0" result="hardAlpha"/>
<feOffset/>
<feGaussianBlur stdDeviation="13.5"/>
<feComposite in2="hardAlpha" operator="out"/>
<feColorMatrix type="matrix" values="0 0 0 0 0.164706 0 0 0 0 1 0 0 0 0 0.6 0 0 0 0.2 0"/>
<feBlend mode="normal" in2="BackgroundImageFix" result="effect1_dropShadow_152_126"/>
<feBlend mode="normal" in="SourceGraphic" in2="effect1_dropShadow_152_126" result="shape"/>
</filter>
<clipPath id="clip0_152_126">
<rect width="80" height="80" fill="white" transform="translate(0.5)"/>
</clipPath>
</defs>
</svg>
