<svg width="81" height="80" viewBox="0 0 81 80" fill="none" xmlns="http://www.w3.org/2000/svg">
<g clip-path="url(#clip0_152_156)">
<g filter="url(#filter0_d_152_156)">
<path d="M64.8032 20.0001H67.1698C68.0539 20.0001 68.9017 20.3512 69.5269 20.9764C70.152 21.6015 70.5032 22.4493 70.5032 23.3334V46.6667C70.5032 47.5508 70.152 48.3986 69.5269 49.0237C68.9017 49.6489 68.0539 50.0001 67.1698 50.0001H60.5032L46.6032 30.5467C45.7947 29.4155 44.6528 28.5654 43.3373 28.1153C42.0218 27.6653 40.5984 27.6378 39.2665 28.0367L30.9798 30.5234C29.8271 30.8685 28.6024 30.8951 27.4358 30.6005C26.2691 30.3059 25.2039 29.701 24.3532 28.8501L23.3765 27.8734C23.0278 27.5248 22.7608 27.1031 22.5947 26.6388C22.4286 26.1746 22.3676 25.6792 22.4161 25.1885C22.4646 24.6978 22.6213 24.224 22.875 23.8012C23.1287 23.3783 23.473 23.0171 23.8832 22.7434L41.8865 10.7434C42.9612 10.0264 44.2211 9.63716 45.513 9.62296C46.8048 9.60876 48.0729 9.97022 49.1632 10.6634L63.0165 19.4801C63.5497 19.8189 64.1715 19.9992 64.8032 20.0001ZM17.2565 47.6501L11.8698 52.3634C11.5017 52.6861 11.2091 53.086 11.013 53.5345C10.8169 53.9831 10.722 54.4694 10.735 54.9588C10.748 55.4482 10.8687 55.9287 11.0885 56.3662C11.3083 56.8037 11.6217 57.1874 12.0065 57.4901L29.1398 70.9567C29.5165 71.2532 29.9526 71.465 30.4186 71.5776C30.8845 71.6902 31.3692 71.701 31.8397 71.6092C32.3102 71.5175 32.7553 71.3253 33.1448 71.0459C33.5342 70.7665 33.8589 70.4063 34.0965 69.9901L36.4432 65.8834C37.142 64.6604 37.4355 63.2476 37.2816 61.8475C37.1277 60.4474 36.5343 59.132 35.5865 58.0901L26.5798 48.1801C25.4053 46.8878 23.7706 46.1079 22.0272 46.0082C20.2837 45.9085 18.5707 46.4968 17.2565 47.6467V47.6501ZM23.9865 16.6667H10.4998C9.61578 16.6667 8.76794 17.0179 8.14281 17.643C7.51769 18.2682 7.1665 19.116 7.1665 20.0001V45.0534C7.16668 46.3979 7.57336 47.7109 8.33317 48.8201C8.41399 48.7452 8.49623 48.6718 8.57984 48.6001L13.9632 43.8867C16.2631 41.8741 19.261 40.8444 22.3122 41.0189C25.3635 41.1935 28.2244 42.5583 30.2798 44.8201L39.2865 54.7267C40.9441 56.5496 41.982 58.8506 42.2515 61.2997C42.521 63.7488 42.0081 66.2203 40.7865 68.3601L38.6032 72.1801C39.5451 72.5372 40.5557 72.6763 41.5592 72.5868C42.5626 72.4973 43.5326 72.1816 44.3965 71.6634L59.0965 62.8434C59.4907 62.6066 59.8315 62.2908 60.0977 61.9158C60.3639 61.5409 60.5497 61.1149 60.6433 60.6647C60.7369 60.2145 60.7363 59.7498 60.6417 59.2999C60.547 58.8499 60.3603 58.4244 60.0932 58.0501L42.5365 33.4534C42.3343 33.1709 42.049 32.9586 41.7203 32.8463C41.3915 32.7339 41.036 32.7271 40.7032 32.8267L32.4165 35.3101C30.3992 35.9152 28.2556 35.963 26.2133 35.4483C24.171 34.9336 22.3061 33.8757 20.8165 32.3867L19.8398 31.4101C18.9678 30.5385 18.3 29.4842 17.8846 28.3234C17.4693 27.1625 17.3167 25.9239 17.4378 24.697C17.559 23.47 17.9509 22.2852 18.5853 21.228C19.2197 20.1708 20.0808 19.2676 21.1065 18.5834L23.9865 16.6667Z" fill="#2AFF99"/>
</g>
</g>
<defs>
<filter id="filter0_d_152_156" x="-19.8335" y="-17.3774" width="117.336" height="116.991" filterUnits="userSpaceOnUse" color-interpolation-filters="sRGB">
<feFlood flood-opacity="0" result="BackgroundImageFix"/>
<feColorMatrix in="SourceAlpha" type="matrix" values="0 0 0 0 0 0 0 0 0 0 0 0 0 0 0 0 0 0 127 0" result="hardAlpha"/>
<feOffset/>
<feGaussianBlur stdDeviation="13.5"/>
<feComposite in2="hardAlpha" operator="out"/>
<feColorMatrix type="matrix" values="0 0 0 0 0.164706 0 0 0 0 1 0 0 0 0 0.6 0 0 0 0.2 0"/>
<feBlend mode="normal" in2="BackgroundImageFix" result="effect1_dropShadow_152_156"/>
<feBlend mode="normal" in="SourceGraphic" in2="effect1_dropShadow_152_156" result="shape"/>
</filter>
<clipPath id="clip0_152_156">
<rect width="80" height="80" fill="white" transform="translate(0.5)"/>
</clipPath>
</defs>
</svg>
