<svg width="56" height="48" viewBox="0 0 56 48" fill="none" xmlns="http://www.w3.org/2000/svg">
<path d="M48.0107 30.895L47.9873 30.9603C45.0777 39.4607 37.0557 45.161 28.0117 45.161C18.9677 45.161 10.9317 39.449 8.03367 30.951L8.01033 30.8833H1.65667V31.651L4.30033 31.9613C5.93367 32.148 6.27667 32.8713 6.72233 33.7813L6.83433 34.0053C10.6563 42.1603 18.977 47.4267 28.021 47.4267C37.0673 47.4267 45.388 42.1603 49.21 34.017L49.322 33.7953C49.7653 32.8853 50.1107 32.162 51.744 31.973L54.39 31.6603V30.895H48.0107ZM8.03367 17.028C10.9433 8.52767 18.9677 2.818 28.0117 2.818C37.0557 2.818 45.0893 8.52767 47.9897 17.028L48.013 17.0933H54.3783V16.328L51.7323 16.0177C50.099 15.8287 49.756 15.1077 49.3103 14.1953L49.2007 13.9713C45.3787 5.83967 37.0533 0.573334 28.0117 0.573334C18.956 0.573334 10.6447 5.83967 6.82267 13.9947L6.71067 14.2163C6.26733 15.1263 5.922 15.8497 4.28867 16.0387L1.645 16.349V17.1167H8.001L8.03367 17.028ZM40.3783 20.7287L36.3113 27.2503H38.066L38.7893 26.0837H43.533L44.2563 27.2503H45.9993L41.9323 20.7287H40.3783ZM42.7887 24.8493H39.5337L41.167 22.2267L42.7887 24.8493ZM49.3453 22.362L54.1777 27.2503H56V20.7287H54.5673V25.5937L49.756 20.7287H47.901V27.2503H49.3453V22.362ZM0 27.2503H1.44433V22.362L6.28833 27.2503H8.11067V20.7287H6.66633V25.5937L1.855 20.7287H0V27.2503ZM11.3003 20.7287H12.7447V27.2503H11.298L11.3003 20.7287ZM21.7677 25.8713C21.721 25.883 21.5437 25.883 21.4783 25.883H15.7337V27.2177H21.567C21.6113 27.2177 21.9567 27.2177 22.022 27.206C23.212 27.094 23.7557 26.1047 23.7557 25.239C23.7557 24.35 23.1887 23.3957 22.1107 23.2953C21.9007 23.272 21.7233 23.272 21.644 23.272H17.8337C17.6921 23.2766 17.5505 23.2656 17.4113 23.2393C17.1103 23.16 17.0007 22.894 17.0007 22.6723C17.0007 22.4717 17.1103 22.2057 17.4207 22.117C17.5525 22.0891 17.6874 22.0781 17.822 22.0843H23.3217V20.773H17.7333C17.5 20.773 17.3227 20.7823 17.178 20.8057C16.7228 20.8617 16.3047 21.085 16.005 21.4322C15.7053 21.7793 15.5454 22.2255 15.5563 22.684C15.5563 23.4843 16.0557 24.4177 17.1547 24.574C17.3553 24.595 17.633 24.595 17.7567 24.595H21.4667C21.5343 24.595 21.7 24.595 21.7327 24.6067C22.155 24.6603 22.2997 24.973 22.2997 25.2507C22.3032 25.4015 22.2509 25.5484 22.1527 25.663C22.0544 25.7776 21.9173 25.8518 21.7677 25.8713ZM32.634 25.8713C32.5873 25.883 32.41 25.883 32.333 25.883H26.6V27.2177H32.4333C32.4777 27.2177 32.823 27.2177 32.8883 27.206C34.0783 27.094 34.622 26.1047 34.622 25.239C34.622 24.35 34.055 23.3957 32.977 23.2953C32.767 23.272 32.5897 23.272 32.5103 23.272H28.7C28.5585 23.2766 28.4168 23.2656 28.2777 23.2393C27.9767 23.16 27.867 22.894 27.867 22.6723C27.867 22.4717 27.9767 22.2057 28.287 22.117C28.4188 22.0891 28.5537 22.0781 28.6883 22.0843H34.188V20.773H28.5997C28.3663 20.773 28.189 20.7823 28.0443 20.8057C27.5891 20.8617 27.171 21.085 26.8713 21.4322C26.5716 21.7793 26.4117 22.2255 26.4227 22.684C26.4227 23.4843 26.922 24.4177 28.0233 24.574C28.2217 24.595 28.4993 24.595 28.623 24.595H32.333C32.4007 24.595 32.5663 24.595 32.599 24.6067C33.0213 24.6603 33.166 24.973 33.166 25.2507C33.167 25.4009 33.1138 25.5464 33.016 25.6605C32.9183 25.7745 32.7826 25.8494 32.634 25.8713Z" fill="white"/>
</svg>
