<svg width="64" height="64" viewBox="0 0 64 64" fill="none" xmlns="http://www.w3.org/2000/svg">
<g clip-path="url(#clip0_152_185)">
<g filter="url(#filter0_d_152_185)">
<path d="M55.9998 27.975V12.6C56.0021 11.8649 55.8592 11.1366 55.5793 10.4569C55.2994 9.77712 54.888 9.15937 54.3687 8.63905C53.8495 8.11873 53.2325 7.70609 52.5534 7.42482C51.8742 7.14354 51.1462 6.99918 50.4111 7H35.0448C34.0372 7.00208 33.0711 7.40137 32.3561 8.11125L1.63606 38.8225C0.588327 39.8736 0 41.2972 0 42.7813C0 44.2653 0.588327 45.6889 1.63606 46.74L16.2611 61.365C17.3118 62.413 18.7352 63.0015 20.2192 63.0015C21.7032 63.0015 23.1266 62.413 24.1773 61.365L54.8886 30.6638C55.5987 29.9489 55.998 28.9826 55.9998 27.975ZM43.9998 23C43.2087 23 42.4353 22.7654 41.7775 22.3259C41.1197 21.8864 40.607 21.2616 40.3043 20.5307C40.0015 19.7998 39.9223 18.9956 40.0767 18.2196C40.231 17.4437 40.612 16.731 41.1714 16.1716C41.7308 15.6122 42.4435 15.2312 43.2194 15.0769C43.9954 14.9225 44.7996 15.0017 45.5305 15.3045C46.2614 15.6072 46.8862 16.1199 47.3257 16.7777C47.7652 17.4355 47.9998 18.2089 47.9998 19C47.9998 20.0609 47.5784 21.0783 46.8282 21.8284C46.0781 22.5786 45.0607 23 43.9998 23Z" fill="#2AFF99"/>
</g>
<path d="M62.0001 13C61.4696 13 60.9609 13.2107 60.5859 13.5858C60.2108 13.9609 60.0001 14.4696 60.0001 15V30.9212L27.3363 63.5863C27.1428 63.7701 26.988 63.9909 26.8811 64.2355C26.7743 64.4801 26.7174 64.7437 26.714 65.0106C26.7106 65.2775 26.7607 65.5424 26.8612 65.7897C26.9618 66.037 27.1109 66.2617 27.2997 66.4504C27.4884 66.6392 27.7131 66.7882 27.9603 66.8888C28.2076 66.9894 28.4725 67.0395 28.7395 67.036C29.0064 67.0326 29.2699 66.9758 29.5146 66.8689C29.7592 66.7621 29.98 66.6073 30.1638 66.4137L62.9138 33.6637C63.2622 33.3138 63.5376 32.8981 63.7241 32.4408C63.9105 31.9835 64.0044 31.4938 64.0001 31V15C64.0001 14.4696 63.7894 13.9609 63.4143 13.5858C63.0392 13.2107 62.5305 13 62.0001 13Z" fill="#2AFF99"/>
</g>
<defs>
<filter id="filter0_d_152_185" x="-20" y="-13" width="96" height="96.0015" filterUnits="userSpaceOnUse" color-interpolation-filters="sRGB">
<feFlood flood-opacity="0" result="BackgroundImageFix"/>
<feColorMatrix in="SourceAlpha" type="matrix" values="0 0 0 0 0 0 0 0 0 0 0 0 0 0 0 0 0 0 127 0" result="hardAlpha"/>
<feOffset/>
<feGaussianBlur stdDeviation="10"/>
<feComposite in2="hardAlpha" operator="out"/>
<feColorMatrix type="matrix" values="0 0 0 0 0.164706 0 0 0 0 1 0 0 0 0 0.6 0 0 0 0.2 0"/>
<feBlend mode="normal" in2="BackgroundImageFix" result="effect1_dropShadow_152_185"/>
<feBlend mode="normal" in="SourceGraphic" in2="effect1_dropShadow_152_185" result="shape"/>
</filter>
<clipPath id="clip0_152_185">
<rect width="64" height="64" fill="white"/>
</clipPath>
</defs>
</svg>
