<svg width="42" height="38" viewBox="0 0 42 38" fill="none" xmlns="http://www.w3.org/2000/svg">
<g clip-path="url(#clip0_152_9)">
<path d="M5.74644 28.7259C7.28661 29.8002 9.78372 29.8002 11.3239 28.7259C12.864 27.6516 12.864 25.9098 11.3239 24.8355C9.78372 23.7612 7.28661 23.7612 5.74644 24.8355C4.20627 25.9098 4.20627 27.6516 5.74644 28.7259Z" fill="#2AFF99"/>
<path d="M21.7322 14.1371C24.0425 15.7485 27.7881 15.7485 30.0984 14.1371C32.4086 12.5256 32.4086 9.91297 30.0984 8.30154C27.7881 6.6901 24.0425 6.6901 21.7322 8.30154C19.422 9.91297 19.422 12.5256 21.7322 14.1371Z" fill="#2AFF99"/>
<path d="M13.2466 21.4315C15.1718 22.7743 18.2932 22.7743 20.2184 21.4315C22.1436 20.0886 22.1436 17.9114 20.2184 16.5685C18.2932 15.2257 15.1718 15.2257 13.2466 16.5685C11.3214 17.9114 11.3214 20.0886 13.2466 21.4315Z" fill="#2AFF99"/>
<path d="M0.866345 20.4589C2.02147 21.2646 3.8943 21.2646 5.04943 20.4589C6.20455 19.6532 6.20455 18.3469 5.04943 17.5411C3.8943 16.7354 2.02147 16.7354 0.866345 17.5411C-0.288782 18.3469 -0.288781 19.6532 0.866345 20.4589Z" fill="#2AFF99"/>
<path d="M13.2466 5.87008C15.1718 7.21294 18.2932 7.21294 20.2184 5.87008C22.1436 4.52722 22.1436 2.35001 20.2184 1.00715C18.2932 -0.335716 15.1718 -0.335717 13.2466 1.00715C11.3214 2.35001 11.3214 4.52722 13.2466 5.87008Z" fill="#2AFF99"/>
<path d="M5.74643 13.1645C7.2866 14.2388 9.78371 14.2388 11.3239 13.1645C12.864 12.0902 12.864 10.3484 11.3239 9.27416C9.78371 8.19987 7.2866 8.19987 5.74643 9.27416C4.20626 10.3484 4.20627 12.0902 5.74643 13.1645Z" fill="#2AFF99"/>
<path d="M13.2466 36.9929C15.1718 38.3357 18.2932 38.3357 20.2184 36.9929C22.1436 35.65 22.1436 33.4728 20.2184 32.1299C18.2932 30.7871 15.1718 30.7871 13.2466 32.1299C11.3214 33.4728 11.3214 35.65 13.2466 36.9929Z" fill="#2AFF99"/>
<path d="M31.9011 21.9178C34.2114 23.5292 37.9571 23.5292 40.2673 21.9178C42.5776 20.3064 42.5776 17.6937 40.2673 16.0823C37.9571 14.4708 34.2114 14.4708 31.9011 16.0823C29.5909 17.6937 29.5909 20.3064 31.9011 21.9178Z" fill="#2AFF99"/>
<path d="M21.7322 29.6984C24.0425 31.3099 27.7881 31.3099 30.0984 29.6984C32.4086 28.087 32.4086 25.4744 30.0984 23.8629C27.7881 22.2515 24.0425 22.2515 21.7322 23.8629C19.422 25.4744 19.422 28.087 21.7322 29.6984Z" fill="#2AFF99"/>
</g>
<defs>
<clipPath id="clip0_152_9">
<rect width="42" height="38" fill="white"/>
</clipPath>
</defs>
</svg>
