<svg width="65" height="64" viewBox="0 0 65 64" fill="none" xmlns="http://www.w3.org/2000/svg">
<g clip-path="url(#clip0_152_193)">
<g filter="url(#filter0_d_152_193)">
<path d="M32.5313 24.4125C30.6625 24.4125 28.9125 25.1375 27.5875 26.4625C26.2688 27.7875 25.5375 29.5375 25.5375 31.4063C25.5375 33.275 26.2688 35.025 27.5875 36.35C28.9125 37.6688 30.6625 38.4001 32.5313 38.4001C34.4 38.4001 36.15 37.6688 37.475 36.35C38.7938 35.025 39.525 33.275 39.525 31.4063C39.525 29.5375 38.7938 27.7875 37.475 26.4625C36.8279 25.8104 36.0576 25.2934 35.2089 24.9414C34.3602 24.5895 33.45 24.4097 32.5313 24.4125ZM58.3 39.1313L54.2125 35.6376C54.4063 34.4501 54.5063 33.2375 54.5063 32.0313C54.5063 30.8251 54.4063 29.6063 54.2125 28.425L58.3 24.9313C58.6088 24.667 58.8298 24.3149 58.9336 23.9219C59.0375 23.5289 59.0192 23.1137 58.8813 22.7313L58.825 22.5688C57.7001 19.4231 56.0146 16.5073 53.85 13.9625L53.7375 13.8313C53.4747 13.5222 53.1244 13.3001 52.7328 13.1941C52.3412 13.0881 51.9266 13.1033 51.5438 13.2375L46.4688 15.0438C44.5938 13.5063 42.5063 12.2938 40.2438 11.45L39.2625 6.1438C39.1885 5.74406 38.9946 5.37631 38.7066 5.08941C38.4185 4.80251 38.0501 4.61003 37.65 4.53755L37.4813 4.5063C34.2313 3.9188 30.8063 3.9188 27.5563 4.5063L27.3875 4.53755C26.9875 4.61003 26.619 4.80251 26.331 5.08941C26.043 5.37631 25.8491 5.74406 25.775 6.1438L24.7875 11.475C22.5465 12.3255 20.4587 13.5351 18.6063 15.0563L13.4938 13.2375C13.1111 13.1022 12.6962 13.0865 12.3044 13.1925C11.9125 13.2986 11.5622 13.5214 11.3 13.8313L11.1875 13.9625C9.02686 16.51 7.34173 19.4251 6.21253 22.5688L6.15628 22.7313C5.87503 23.5126 6.10628 24.3875 6.73753 24.9313L10.875 28.4625C10.6813 29.6375 10.5875 30.8376 10.5875 32.0251C10.5875 33.2251 10.6813 34.4251 10.875 35.5876L6.75003 39.1188C6.44125 39.3831 6.22026 39.7352 6.11643 40.1282C6.0126 40.5212 6.03086 40.9364 6.16878 41.3188L6.22503 41.4813C7.35628 44.625 9.02503 47.5313 11.2 50.0876L11.3125 50.2188C11.5754 50.5279 11.9257 50.75 12.3173 50.856C12.7089 50.962 13.1234 50.9468 13.5063 50.8125L18.6188 48.9938C20.4813 50.5251 22.5563 51.7375 24.8 52.5751L25.7875 57.9063C25.8616 58.306 26.0555 58.6738 26.3435 58.9607C26.6315 59.2476 27 59.4401 27.4 59.5126L27.5688 59.5438C30.8507 60.1345 34.2118 60.1345 37.4938 59.5438L37.6625 59.5126C38.0625 59.4401 38.431 59.2476 38.7191 58.9607C39.0071 58.6738 39.201 58.306 39.275 57.9063L40.2563 52.6C42.5188 51.75 44.6063 50.5438 46.4813 49.0063L51.5563 50.8125C51.939 50.9479 52.3538 50.9636 52.7457 50.8576C53.1375 50.7515 53.4878 50.5287 53.75 50.2188L53.8625 50.0876C56.0375 47.5188 57.7063 44.625 58.8375 41.4813L58.8938 41.3188C59.1625 40.5438 58.9313 39.675 58.3 39.1313ZM32.5313 42.3938C26.4625 42.3938 21.5438 37.475 21.5438 31.4063C21.5438 25.3375 26.4625 20.4188 32.5313 20.4188C38.6 20.4188 43.5188 25.3375 43.5188 31.4063C43.5188 37.475 38.6 42.3938 32.5313 42.3938Z" fill="#2AFF99"/>
</g>
</g>
<defs>
<filter id="filter0_d_152_193" x="-13.9619" y="-15.9343" width="92.9658" height="95.9211" filterUnits="userSpaceOnUse" color-interpolation-filters="sRGB">
<feFlood flood-opacity="0" result="BackgroundImageFix"/>
<feColorMatrix in="SourceAlpha" type="matrix" values="0 0 0 0 0 0 0 0 0 0 0 0 0 0 0 0 0 0 127 0" result="hardAlpha"/>
<feOffset/>
<feGaussianBlur stdDeviation="10"/>
<feComposite in2="hardAlpha" operator="out"/>
<feColorMatrix type="matrix" values="0 0 0 0 0.164706 0 0 0 0 1 0 0 0 0 0.6 0 0 0 0.2 0"/>
<feBlend mode="normal" in2="BackgroundImageFix" result="effect1_dropShadow_152_193"/>
<feBlend mode="normal" in="SourceGraphic" in2="effect1_dropShadow_152_193" result="shape"/>
</filter>
<clipPath id="clip0_152_193">
<rect width="64" height="64" fill="white" transform="translate(0.5)"/>
</clipPath>
</defs>
</svg>
