<svg width="81" height="80" viewBox="0 0 81 80" fill="none" xmlns="http://www.w3.org/2000/svg">
<g clip-path="url(#clip0_152_136)">
<g filter="url(#filter0_d_152_136)">
<path fill-rule="evenodd" clip-rule="evenodd" d="M54.2899 15.76L60.3899 21.86C69.3499 30.8267 73.8332 35.3067 73.8332 40.8733C73.8332 46.4433 69.3499 50.9233 60.3865 59.8867C51.4232 68.8567 46.9432 73.3333 41.3732 73.3333C35.8065 73.3333 31.3232 68.85 22.3599 59.8867L16.2599 53.7867C11.1099 48.6367 8.53321 46.0633 7.57655 42.72C6.61655 39.3767 7.43655 35.8267 9.07655 28.73L10.0199 24.6367C11.3965 18.6633 12.0865 15.6767 14.1299 13.63C16.1765 11.5867 19.1632 10.8967 25.1365 9.51998L29.2299 8.57332C36.3299 6.93665 39.8765 6.11665 43.2199 7.07332C46.5632 8.03332 49.1399 10.61 54.2899 15.76ZM37.6565 47.76C35.4132 45.52 35.4299 42.3 36.7732 39.75C36.4406 39.2696 36.2868 38.688 36.3385 38.106C36.3901 37.5241 36.6439 36.9786 37.0558 36.5643C37.4678 36.1499 38.0118 35.893 38.5934 35.838C39.1751 35.783 39.7576 35.9335 40.2399 36.2633C41.3732 35.6633 42.6165 35.3433 43.8565 35.3567C44.5196 35.3628 45.153 35.6322 45.6175 36.1054C46.0819 36.5786 46.3394 37.2169 46.3332 37.88C46.327 38.543 46.0577 39.1765 45.5845 39.6409C45.1113 40.1054 44.4729 40.3628 43.8099 40.3567C43.038 40.3852 42.3086 40.717 41.7799 41.28C40.4899 42.57 40.8265 43.8633 41.1899 44.2267C41.5565 44.59 42.8465 44.9267 44.1365 43.6367C46.7499 41.0233 51.2632 40.1567 54.1532 43.0466C56.3965 45.29 56.3799 48.51 55.0365 51.06C55.367 51.5404 55.5191 52.1213 55.4666 52.7021C55.414 53.2828 55.1601 53.8269 54.7487 54.2403C54.3374 54.6536 53.7945 54.9101 53.214 54.9655C52.6335 55.0208 52.0519 54.8715 51.5699 54.5433C50.074 55.3638 48.3389 55.6372 46.6632 55.3167C46.0134 55.1832 45.4433 54.797 45.0782 54.2432C44.7132 53.6893 44.5831 53.0131 44.7165 52.3633C44.85 51.7135 45.2362 51.1434 45.79 50.7783C46.3439 50.4133 47.0201 50.2832 47.6699 50.4167C48.2599 50.54 49.2132 50.3467 50.0299 49.53C51.3199 48.2367 50.9832 46.9467 50.6199 46.5833C50.2532 46.22 48.9632 45.8833 47.6732 47.1733C45.0599 49.7867 40.5465 50.6533 37.6565 47.76ZM33.9032 34.31C34.5222 33.6908 35.0131 32.9558 35.348 32.1469C35.6829 31.3379 35.8552 30.471 35.8551 29.5955C35.8549 28.72 35.6823 27.8531 35.3471 27.0443C35.0119 26.2355 34.5207 25.5006 33.9015 24.8817C33.2824 24.2627 32.5473 23.7717 31.7384 23.4368C30.9295 23.1019 30.0625 22.9297 29.187 22.9298C28.3115 22.93 27.4446 23.1026 26.6358 23.4377C25.827 23.7729 25.0922 24.2641 24.4732 24.8833C23.2232 26.1338 22.5211 27.8297 22.5214 29.5978C22.5217 31.366 23.2244 33.0616 24.4749 34.3117C25.7254 35.5617 27.4212 36.2638 29.1894 36.2635C30.9575 36.2632 32.6532 35.5605 33.9032 34.31Z" fill="#2AFF99"/>
</g>
</g>
<defs>
<filter id="filter0_d_152_136" x="-19.833" y="-20.3342" width="120.666" height="120.667" filterUnits="userSpaceOnUse" color-interpolation-filters="sRGB">
<feFlood flood-opacity="0" result="BackgroundImageFix"/>
<feColorMatrix in="SourceAlpha" type="matrix" values="0 0 0 0 0 0 0 0 0 0 0 0 0 0 0 0 0 0 127 0" result="hardAlpha"/>
<feOffset/>
<feGaussianBlur stdDeviation="13.5"/>
<feComposite in2="hardAlpha" operator="out"/>
<feColorMatrix type="matrix" values="0 0 0 0 0.164706 0 0 0 0 1 0 0 0 0 0.6 0 0 0 0.2 0"/>
<feBlend mode="normal" in2="BackgroundImageFix" result="effect1_dropShadow_152_136"/>
<feBlend mode="normal" in="SourceGraphic" in2="effect1_dropShadow_152_136" result="shape"/>
</filter>
<clipPath id="clip0_152_136">
<rect width="80" height="80" fill="white" transform="translate(0.5)"/>
</clipPath>
</defs>
</svg>
