<svg width="56" height="56" viewBox="0 0 56 56" fill="none" xmlns="http://www.w3.org/2000/svg">
<path d="M28 12.5113L33.775 5.45067C33.775 5.45067 43.68 5.66067 53.5407 10.2433C51.016 14.0607 46.0017 15.932 46.0017 15.932C45.661 12.5743 43.309 11.7553 35.8423 11.7553L28 56L20.111 11.746C12.691 11.746 10.339 12.572 9.996 15.9273C9.996 15.9273 4.98867 14.0723 2.46167 10.2573C12.32 5.67233 22.225 5.46 22.225 5.46L28 12.5113L27.9907 12.516H28V12.5113ZM28 3.41367C35.9683 3.34367 45.094 4.64567 54.432 8.73367C55.6803 6.475 56 5.47867 56 5.47867C45.7917 1.428 36.232 0.035 28 0C19.768 0.035 10.2083 1.42333 0 5.481C0 5.481 0.455 6.706 1.568 8.73833C10.906 4.641 20.0317 3.34833 28 3.40667V3.41367Z" fill="white"/>
</svg>
