<svg width="56" height="40" viewBox="0 0 56 40" fill="none" xmlns="http://www.w3.org/2000/svg">
<path d="M28 0.978668C12.187 0.978668 0 9.02867 0 20C0 30.9713 12.1893 39.0213 28 39.0213C43.8107 39.0213 56 30.9713 56 20C56 9.02867 43.813 0.978668 28 0.978668ZM45.1127 9.93633C45.1127 12.4563 41.0877 14.4 34.6407 15.177C34.034 9.157 32.2957 5.19267 30.0603 3.71333C36.939 4.14267 45.1127 6.57633 45.1127 9.93633ZM28 30.269C25.76 30.269 23.926 26.769 23.7813 20.028C25.1277 20.1377 26.5347 20.196 28 20.196C29.4653 20.196 30.87 20.1377 32.2163 20.028C32.074 26.7713 30.24 30.269 28 30.269ZM28 15.5503C26.6233 15.5503 25.305 15.506 24.0567 15.4243C24.6657 11.3923 26.2033 8.07433 28 8.07433C29.7967 8.07433 31.332 11.3923 31.941 15.4243C30.6927 15.5037 29.3767 15.5503 28 15.5503ZM25.942 3.70867C23.7113 5.18567 21.9613 9.15233 21.3593 15.177C14.9123 14.4 10.885 12.4563 10.885 9.93633C10.885 6.57633 19.061 4.12633 25.942 3.70867ZM4.753 19.2533C4.74711 16.5926 5.60523 14.0018 7.19833 11.8707C7.82833 15.4803 13.083 18.593 21.133 19.734V20C21.133 28.8013 23.184 34.4737 26.0027 36.2633C14.0863 35.5143 4.753 28.1433 4.753 19.2533ZM30.0067 36.2633C32.823 34.4737 34.8763 28.8013 34.8763 20V19.7317C42.9193 18.593 48.1857 15.471 48.811 11.8683C50.4062 13.9994 51.2652 16.5914 51.2587 19.2533C51.2493 28.1433 41.909 35.5143 30.0067 36.2633Z" fill="white"/>
</svg>
